<mxfile host="Electron" agent="Mozilla/5.0 (X11; Linux x86_64) AppleWebKit/537.36 (KHTML, like Gecko) draw.io/26.0.4 Chrome/128.0.6613.186 Electron/32.2.8 Safari/537.36" version="26.0.4">
  <diagram name="Page-1" id="zby8Wxxjh_6SGCrDghd_">
    <mxGraphModel dx="1612" dy="3010" grid="1" gridSize="10" guides="1" tooltips="1" connect="1" arrows="1" fold="1" page="1" pageScale="1" pageWidth="2028" pageHeight="2028" math="0" shadow="0">
      <root>
        <mxCell id="0" />
        <mxCell id="1" parent="0" />
        <mxCell id="NXid-BT4yfgxMKIQa66q-1" value="" style="whiteSpace=wrap;html=1;aspect=fixed;fillColor=#60a917;strokeColor=#2D7600;fontColor=#ffffff;rounded=1;" parent="1" vertex="1">
          <mxGeometry x="15" y="50" width="30" height="30" as="geometry" />
        </mxCell>
        <mxCell id="NXid-BT4yfgxMKIQa66q-2" value="&lt;div&gt;Legend&lt;/div&gt;" style="text;html=1;align=center;verticalAlign=middle;whiteSpace=wrap;rounded=1;" parent="1" vertex="1">
          <mxGeometry y="10" width="60" height="30" as="geometry" />
        </mxCell>
        <mxCell id="NXid-BT4yfgxMKIQa66q-3" value="Official Valve Mod/Title/Engine" style="text;html=1;align=center;verticalAlign=middle;whiteSpace=wrap;rounded=1;" parent="1" vertex="1">
          <mxGeometry x="60" y="50" width="170" height="30" as="geometry" />
        </mxCell>
        <mxCell id="NXid-BT4yfgxMKIQa66q-5" value="" style="whiteSpace=wrap;html=1;aspect=fixed;fillColor=#1ba1e2;strokeColor=#006EAF;fontColor=#ffffff;rounded=1;" parent="1" vertex="1">
          <mxGeometry x="15" y="90" width="30" height="30" as="geometry" />
        </mxCell>
        <mxCell id="NXid-BT4yfgxMKIQa66q-6" value="Title Published But Not Developed By Valve" style="text;html=1;align=center;verticalAlign=middle;whiteSpace=wrap;rounded=1;" parent="1" vertex="1">
          <mxGeometry x="60" y="90" width="240" height="30" as="geometry" />
        </mxCell>
        <mxCell id="C-jzJU40o5kUoUtQNF1t-1" value="" style="whiteSpace=wrap;html=1;aspect=fixed;fillColor=#fa6800;strokeColor=#C73500;fontColor=#000000;rounded=1;" parent="1" vertex="1">
          <mxGeometry x="15" y="130" width="30" height="30" as="geometry" />
        </mxCell>
        <mxCell id="C-jzJU40o5kUoUtQNF1t-2" value="3rd Party Mod" style="text;html=1;align=center;verticalAlign=middle;whiteSpace=wrap;rounded=1;arcSize=50;" parent="1" vertex="1">
          <mxGeometry x="61" y="130" width="80" height="30" as="geometry" />
        </mxCell>
        <mxCell id="C-jzJU40o5kUoUtQNF1t-7" value="" style="whiteSpace=wrap;html=1;aspect=fixed;fillColor=#d80073;strokeColor=#A50040;fontColor=#ffffff;rounded=1;" parent="1" vertex="1">
          <mxGeometry x="15" y="210" width="30" height="30" as="geometry" />
        </mxCell>
        <mxCell id="C-jzJU40o5kUoUtQNF1t-8" value="&lt;div&gt;3rd Party Title&lt;/div&gt;" style="text;html=1;align=center;verticalAlign=middle;whiteSpace=wrap;rounded=1;" parent="1" vertex="1">
          <mxGeometry x="60" y="210" width="85" height="30" as="geometry" />
        </mxCell>
        <mxCell id="C-jzJU40o5kUoUtQNF1t-10" value="" style="whiteSpace=wrap;html=1;aspect=fixed;fillColor=#FF6666;strokeColor=#FF0000;rounded=1;" parent="1" vertex="1">
          <mxGeometry x="15" y="170" width="30" height="30" as="geometry" />
        </mxCell>
        <mxCell id="C-jzJU40o5kUoUtQNF1t-11" value="3rd Party Mod That Became an Official Title" style="text;html=1;align=center;verticalAlign=middle;whiteSpace=wrap;rounded=1;" parent="1" vertex="1">
          <mxGeometry x="60" y="170" width="240" height="30" as="geometry" />
        </mxCell>
        <mxCell id="C-jzJU40o5kUoUtQNF1t-25" value="" style="edgeStyle=orthogonalEdgeStyle;orthogonalLoop=1;jettySize=auto;html=1;fontFamily=Helvetica;fontSize=12;fontColor=default;resizable=1;rounded=1;entryX=0.5;entryY=0;entryDx=0;entryDy=0;" parent="1" source="C-jzJU40o5kUoUtQNF1t-17" target="C-jzJU40o5kUoUtQNF1t-59" edge="1">
          <mxGeometry relative="1" as="geometry">
            <mxPoint x="1014" y="150" as="targetPoint" />
          </mxGeometry>
        </mxCell>
        <mxCell id="C-jzJU40o5kUoUtQNF1t-27" value="" style="edgeStyle=orthogonalEdgeStyle;orthogonalLoop=1;jettySize=auto;html=1;fontFamily=Helvetica;fontSize=12;fontColor=default;resizable=1;rounded=1;" parent="1" source="C-jzJU40o5kUoUtQNF1t-17" target="C-jzJU40o5kUoUtQNF1t-26" edge="1">
          <mxGeometry relative="1" as="geometry" />
        </mxCell>
        <mxCell id="C-jzJU40o5kUoUtQNF1t-96" value="" style="edgeStyle=orthogonalEdgeStyle;rounded=0;orthogonalLoop=1;jettySize=auto;html=1;" parent="1" source="C-jzJU40o5kUoUtQNF1t-17" target="C-jzJU40o5kUoUtQNF1t-95" edge="1">
          <mxGeometry relative="1" as="geometry" />
        </mxCell>
        <mxCell id="C-jzJU40o5kUoUtQNF1t-17" value="&lt;div&gt;Quake&lt;/div&gt;" style="html=1;whiteSpace=wrap;aspect=fixed;shape=isoRectangle;movable=1;resizable=1;rotatable=1;deletable=1;editable=1;locked=0;connectable=1;points=[[0,0.5,0,0,0],[0.5,0,0,0,0],[0.5,1,0,0,0],[1,0.5,0,0,0]];fillColor=#d80073;fontColor=#ffffff;strokeColor=#A50040;rounded=1;" parent="1" vertex="1">
          <mxGeometry x="964" y="10" width="100" height="60" as="geometry" />
        </mxCell>
        <mxCell id="C-jzJU40o5kUoUtQNF1t-29" value="" style="edgeStyle=orthogonalEdgeStyle;orthogonalLoop=1;jettySize=auto;html=1;fontFamily=Helvetica;fontSize=12;fontColor=default;resizable=1;rounded=1;" parent="1" source="C-jzJU40o5kUoUtQNF1t-26" target="C-jzJU40o5kUoUtQNF1t-28" edge="1">
          <mxGeometry relative="1" as="geometry" />
        </mxCell>
        <mxCell id="C-jzJU40o5kUoUtQNF1t-26" value="&lt;div&gt;Quake II&lt;/div&gt;" style="html=1;whiteSpace=wrap;aspect=fixed;shape=isoRectangle;movable=1;resizable=1;rotatable=1;deletable=1;editable=1;locked=0;connectable=1;points=[[0,0.5,0,0,0],[0.5,0,0,0,0],[0.5,1,0,0,0],[1,0.5,0,0,0]];fillColor=#d80073;fontColor=#ffffff;strokeColor=#A50040;rounded=1;" parent="1" vertex="1">
          <mxGeometry x="1380" y="41.5" width="100" height="60" as="geometry" />
        </mxCell>
        <mxCell id="C-jzJU40o5kUoUtQNF1t-38" value="" style="edgeStyle=orthogonalEdgeStyle;orthogonalLoop=1;jettySize=auto;html=1;fontFamily=Helvetica;fontSize=12;fontColor=default;resizable=1;rounded=1;" parent="1" source="C-jzJU40o5kUoUtQNF1t-28" target="C-jzJU40o5kUoUtQNF1t-37" edge="1">
          <mxGeometry relative="1" as="geometry" />
        </mxCell>
        <mxCell id="C-jzJU40o5kUoUtQNF1t-40" value="" style="edgeStyle=orthogonalEdgeStyle;orthogonalLoop=1;jettySize=auto;html=1;fontFamily=Helvetica;fontSize=12;fontColor=default;resizable=1;rounded=1;" parent="1" source="C-jzJU40o5kUoUtQNF1t-28" target="C-jzJU40o5kUoUtQNF1t-39" edge="1">
          <mxGeometry relative="1" as="geometry" />
        </mxCell>
        <mxCell id="C-jzJU40o5kUoUtQNF1t-28" value="&lt;div&gt;Quake III Arena&lt;/div&gt;" style="html=1;whiteSpace=wrap;aspect=fixed;shape=isoRectangle;movable=1;resizable=1;rotatable=1;deletable=1;editable=1;locked=0;connectable=1;points=[[0,0.5,0,0,0],[0.5,0,0,0,0],[0.5,1,0,0,0],[1,0.5,0,0,0]];fillColor=#d80073;fontColor=#ffffff;strokeColor=#A50040;rounded=1;" parent="1" vertex="1">
          <mxGeometry x="1540" y="38.5" width="110" height="66" as="geometry" />
        </mxCell>
        <mxCell id="C-jzJU40o5kUoUtQNF1t-61" value="" style="edgeStyle=orthogonalEdgeStyle;rounded=0;orthogonalLoop=1;jettySize=auto;html=1;" parent="1" source="C-jzJU40o5kUoUtQNF1t-37" target="C-jzJU40o5kUoUtQNF1t-60" edge="1">
          <mxGeometry relative="1" as="geometry" />
        </mxCell>
        <mxCell id="C-jzJU40o5kUoUtQNF1t-37" value="&lt;div&gt;Call of Duty&lt;/div&gt;" style="html=1;whiteSpace=wrap;aspect=fixed;shape=isoRectangle;movable=1;resizable=1;rotatable=1;deletable=1;editable=1;locked=0;connectable=1;points=[[0,0.5,0,0,0],[0.5,0,0,0,0],[0.5,1,0,0,0],[1,0.5,0,0,0]];fillColor=#d80073;fontColor=#ffffff;strokeColor=#A50040;rounded=1;" parent="1" vertex="1">
          <mxGeometry x="1540" y="131.5" width="110" height="66" as="geometry" />
        </mxCell>
        <mxCell id="C-jzJU40o5kUoUtQNF1t-39" value="&lt;div&gt;Rest of the Doom&amp;nbsp;&lt;/div&gt;&lt;div&gt;and Quake Games&lt;/div&gt;&amp;nbsp;2004-Present" style="html=1;whiteSpace=wrap;aspect=fixed;shape=isoRectangle;movable=1;resizable=1;rotatable=1;deletable=1;editable=1;locked=0;connectable=1;points=[[0,0.5,0,0,0],[0.5,0,0,0,0],[0.5,1,0,0,0],[1,0.5,0,0,0]];fillColor=#d80073;fontColor=#ffffff;strokeColor=#A50040;rounded=1;" parent="1" vertex="1">
          <mxGeometry x="1730" y="20" width="171.67" height="103" as="geometry" />
        </mxCell>
        <mxCell id="C-jzJU40o5kUoUtQNF1t-63" value="" style="edgeStyle=orthogonalEdgeStyle;rounded=0;orthogonalLoop=1;jettySize=auto;html=1;" parent="1" source="C-jzJU40o5kUoUtQNF1t-59" target="C-jzJU40o5kUoUtQNF1t-62" edge="1">
          <mxGeometry relative="1" as="geometry" />
        </mxCell>
        <mxCell id="C-jzJU40o5kUoUtQNF1t-83" style="edgeStyle=orthogonalEdgeStyle;rounded=0;orthogonalLoop=1;jettySize=auto;html=1;exitX=0.5;exitY=1;exitDx=0;exitDy=0;entryX=0.5;entryY=0;entryDx=0;entryDy=0;" parent="1" source="C-jzJU40o5kUoUtQNF1t-59" target="C-jzJU40o5kUoUtQNF1t-81" edge="1">
          <mxGeometry relative="1" as="geometry">
            <Array as="points">
              <mxPoint x="1015" y="580" />
              <mxPoint x="885" y="580" />
            </Array>
          </mxGeometry>
        </mxCell>
        <mxCell id="C-jzJU40o5kUoUtQNF1t-100" style="edgeStyle=orthogonalEdgeStyle;rounded=0;orthogonalLoop=1;jettySize=auto;html=1;exitX=0;exitY=0.5;exitDx=0;exitDy=0;entryX=1;entryY=0.5;entryDx=0;entryDy=0;" parent="1" source="C-jzJU40o5kUoUtQNF1t-59" target="C-jzJU40o5kUoUtQNF1t-99" edge="1">
          <mxGeometry relative="1" as="geometry">
            <Array as="points">
              <mxPoint x="795" y="187" />
              <mxPoint x="795" y="70" />
              <mxPoint x="720" y="70" />
            </Array>
          </mxGeometry>
        </mxCell>
        <mxCell id="C-jzJU40o5kUoUtQNF1t-104" style="edgeStyle=orthogonalEdgeStyle;rounded=0;orthogonalLoop=1;jettySize=auto;html=1;exitX=0;exitY=0.5;exitDx=0;exitDy=0;entryX=1;entryY=0.5;entryDx=0;entryDy=0;" parent="1" source="C-jzJU40o5kUoUtQNF1t-59" target="C-jzJU40o5kUoUtQNF1t-103" edge="1">
          <mxGeometry relative="1" as="geometry">
            <Array as="points">
              <mxPoint x="770" y="187" />
              <mxPoint x="770" y="135" />
            </Array>
          </mxGeometry>
        </mxCell>
        <mxCell id="C-jzJU40o5kUoUtQNF1t-106" style="edgeStyle=orthogonalEdgeStyle;rounded=0;orthogonalLoop=1;jettySize=auto;html=1;exitX=0;exitY=0.5;exitDx=0;exitDy=0;entryX=1;entryY=0.5;entryDx=0;entryDy=0;" parent="1" source="C-jzJU40o5kUoUtQNF1t-59" target="C-jzJU40o5kUoUtQNF1t-105" edge="1">
          <mxGeometry relative="1" as="geometry">
            <Array as="points">
              <mxPoint x="770" y="187" />
              <mxPoint x="770" y="223" />
            </Array>
          </mxGeometry>
        </mxCell>
        <mxCell id="C-jzJU40o5kUoUtQNF1t-108" style="edgeStyle=orthogonalEdgeStyle;rounded=0;orthogonalLoop=1;jettySize=auto;html=1;exitX=0;exitY=0.5;exitDx=0;exitDy=0;entryX=1;entryY=0.5;entryDx=0;entryDy=0;" parent="1" source="C-jzJU40o5kUoUtQNF1t-59" target="C-jzJU40o5kUoUtQNF1t-107" edge="1">
          <mxGeometry relative="1" as="geometry">
            <Array as="points">
              <mxPoint x="790" y="187" />
              <mxPoint x="790" y="307" />
            </Array>
          </mxGeometry>
        </mxCell>
        <mxCell id="C-jzJU40o5kUoUtQNF1t-110" style="edgeStyle=orthogonalEdgeStyle;rounded=0;orthogonalLoop=1;jettySize=auto;html=1;exitX=1;exitY=0.5;exitDx=0;exitDy=0;" parent="1" source="C-jzJU40o5kUoUtQNF1t-59" target="C-jzJU40o5kUoUtQNF1t-109" edge="1">
          <mxGeometry relative="1" as="geometry" />
        </mxCell>
        <mxCell id="C-jzJU40o5kUoUtQNF1t-112" style="edgeStyle=orthogonalEdgeStyle;rounded=0;orthogonalLoop=1;jettySize=auto;html=1;exitX=1;exitY=0.5;exitDx=0;exitDy=0;entryX=0;entryY=0.5;entryDx=0;entryDy=0;" parent="1" source="C-jzJU40o5kUoUtQNF1t-59" target="C-jzJU40o5kUoUtQNF1t-111" edge="1">
          <mxGeometry relative="1" as="geometry" />
        </mxCell>
        <mxCell id="C-jzJU40o5kUoUtQNF1t-114" style="edgeStyle=orthogonalEdgeStyle;rounded=0;orthogonalLoop=1;jettySize=auto;html=1;exitX=1;exitY=0.5;exitDx=0;exitDy=0;entryX=0.019;entryY=0.502;entryDx=0;entryDy=0;entryPerimeter=0;" parent="1" edge="1">
          <mxGeometry relative="1" as="geometry">
            <mxPoint x="1082" y="186.5" as="sourcePoint" />
            <mxPoint x="1162.8277699999999" y="264.17999999999995" as="targetPoint" />
            <Array as="points">
              <mxPoint x="1102" y="187" />
              <mxPoint x="1102" y="264" />
              <mxPoint x="1120" y="264" />
            </Array>
          </mxGeometry>
        </mxCell>
        <mxCell id="C-jzJU40o5kUoUtQNF1t-116" style="edgeStyle=orthogonalEdgeStyle;rounded=0;orthogonalLoop=1;jettySize=auto;html=1;exitX=0;exitY=0.5;exitDx=0;exitDy=0;entryX=1;entryY=0.5;entryDx=0;entryDy=0;" parent="1" source="C-jzJU40o5kUoUtQNF1t-59" target="C-jzJU40o5kUoUtQNF1t-115" edge="1">
          <mxGeometry relative="1" as="geometry">
            <Array as="points">
              <mxPoint x="840" y="187" />
              <mxPoint x="840" y="380" />
            </Array>
          </mxGeometry>
        </mxCell>
        <mxCell id="C-jzJU40o5kUoUtQNF1t-122" style="edgeStyle=orthogonalEdgeStyle;rounded=0;orthogonalLoop=1;jettySize=auto;html=1;exitX=0;exitY=0.5;exitDx=0;exitDy=0;" parent="1" source="C-jzJU40o5kUoUtQNF1t-59" target="C-jzJU40o5kUoUtQNF1t-118" edge="1">
          <mxGeometry relative="1" as="geometry" />
        </mxCell>
        <mxCell id="C-jzJU40o5kUoUtQNF1t-169" style="edgeStyle=orthogonalEdgeStyle;rounded=0;orthogonalLoop=1;jettySize=auto;html=1;exitX=1;exitY=1;exitDx=0;exitDy=0;entryX=0;entryY=0.5;entryDx=0;entryDy=0;" parent="1" source="C-jzJU40o5kUoUtQNF1t-59" target="C-jzJU40o5kUoUtQNF1t-168" edge="1">
          <mxGeometry relative="1" as="geometry" />
        </mxCell>
        <mxCell id="C-jzJU40o5kUoUtQNF1t-59" value="Half-Life / GoldSrc" style="rhombus;whiteSpace=wrap;html=1;fillColor=#008a00;fontColor=#ffffff;strokeColor=#005700;" parent="1" vertex="1">
          <mxGeometry x="949" y="141.5" width="131" height="90" as="geometry" />
        </mxCell>
        <mxCell id="C-jzJU40o5kUoUtQNF1t-60" value="&lt;div&gt;Rest of the CoD&lt;/div&gt;&lt;div&gt;Games 2005-Present&lt;/div&gt;" style="html=1;whiteSpace=wrap;aspect=fixed;shape=isoRectangle;movable=1;resizable=1;rotatable=1;deletable=1;editable=1;locked=0;connectable=1;points=[[0,0.5,0,0,0],[0.5,0,0,0,0],[0.5,1,0,0,0],[1,0.5,0,0,0]];fillColor=#d80073;fontColor=#ffffff;strokeColor=#A50040;rounded=1;" parent="1" vertex="1">
          <mxGeometry x="1516.67" y="231.5" width="156.67" height="94" as="geometry" />
        </mxCell>
        <mxCell id="C-jzJU40o5kUoUtQNF1t-80" style="edgeStyle=orthogonalEdgeStyle;rounded=0;orthogonalLoop=1;jettySize=auto;html=1;exitX=1;exitY=0.5;exitDx=0;exitDy=0;entryX=0;entryY=0.5;entryDx=0;entryDy=0;" parent="1" source="C-jzJU40o5kUoUtQNF1t-62" target="C-jzJU40o5kUoUtQNF1t-79" edge="1">
          <mxGeometry relative="1" as="geometry" />
        </mxCell>
        <mxCell id="C-jzJU40o5kUoUtQNF1t-160" value="" style="edgeStyle=orthogonalEdgeStyle;rounded=0;orthogonalLoop=1;jettySize=auto;html=1;" parent="1" source="C-jzJU40o5kUoUtQNF1t-62" target="C-jzJU40o5kUoUtQNF1t-159" edge="1">
          <mxGeometry relative="1" as="geometry" />
        </mxCell>
        <mxCell id="C-jzJU40o5kUoUtQNF1t-165" style="edgeStyle=orthogonalEdgeStyle;rounded=0;orthogonalLoop=1;jettySize=auto;html=1;exitX=0;exitY=0.5;exitDx=0;exitDy=0;" parent="1" source="C-jzJU40o5kUoUtQNF1t-62" target="C-jzJU40o5kUoUtQNF1t-164" edge="1">
          <mxGeometry relative="1" as="geometry" />
        </mxCell>
        <mxCell id="C-jzJU40o5kUoUtQNF1t-185" style="edgeStyle=orthogonalEdgeStyle;rounded=0;orthogonalLoop=1;jettySize=auto;html=1;exitX=1;exitY=1;exitDx=0;exitDy=0;entryX=0;entryY=0.5;entryDx=0;entryDy=0;" parent="1" source="C-jzJU40o5kUoUtQNF1t-62" target="C-jzJU40o5kUoUtQNF1t-184" edge="1">
          <mxGeometry relative="1" as="geometry" />
        </mxCell>
        <mxCell id="C-jzJU40o5kUoUtQNF1t-187" style="edgeStyle=orthogonalEdgeStyle;rounded=0;orthogonalLoop=1;jettySize=auto;html=1;exitX=0;exitY=0.5;exitDx=0;exitDy=0;entryX=1;entryY=0.5;entryDx=0;entryDy=0;" parent="1" source="C-jzJU40o5kUoUtQNF1t-62" target="C-jzJU40o5kUoUtQNF1t-186" edge="1">
          <mxGeometry relative="1" as="geometry" />
        </mxCell>
        <mxCell id="C-jzJU40o5kUoUtQNF1t-195" style="edgeStyle=orthogonalEdgeStyle;rounded=0;orthogonalLoop=1;jettySize=auto;html=1;exitX=0;exitY=1;exitDx=0;exitDy=0;entryX=1;entryY=0.5;entryDx=0;entryDy=0;" parent="1" source="C-jzJU40o5kUoUtQNF1t-62" target="C-jzJU40o5kUoUtQNF1t-166" edge="1">
          <mxGeometry relative="1" as="geometry" />
        </mxCell>
        <mxCell id="C-jzJU40o5kUoUtQNF1t-62" value="&lt;div&gt;Half-Life 2 /&amp;nbsp;&lt;/div&gt;&lt;div&gt;Source 2004&lt;/div&gt;" style="rhombus;whiteSpace=wrap;html=1;fillColor=#008a00;fontColor=#ffffff;strokeColor=#005700;" parent="1" vertex="1">
          <mxGeometry x="950" y="924" width="131" height="90" as="geometry" />
        </mxCell>
        <mxCell id="C-jzJU40o5kUoUtQNF1t-71" style="edgeStyle=orthogonalEdgeStyle;rounded=0;orthogonalLoop=1;jettySize=auto;html=1;exitX=0.5;exitY=1;exitDx=0;exitDy=0;entryX=0.5;entryY=0;entryDx=0;entryDy=0;" parent="1" source="C-jzJU40o5kUoUtQNF1t-64" target="C-jzJU40o5kUoUtQNF1t-70" edge="1">
          <mxGeometry relative="1" as="geometry" />
        </mxCell>
        <mxCell id="C-jzJU40o5kUoUtQNF1t-73" style="edgeStyle=orthogonalEdgeStyle;rounded=0;orthogonalLoop=1;jettySize=auto;html=1;exitX=0.5;exitY=1;exitDx=0;exitDy=0;entryX=0.5;entryY=0;entryDx=0;entryDy=0;" parent="1" source="C-jzJU40o5kUoUtQNF1t-64" target="C-jzJU40o5kUoUtQNF1t-72" edge="1">
          <mxGeometry relative="1" as="geometry" />
        </mxCell>
        <mxCell id="C-jzJU40o5kUoUtQNF1t-98" style="edgeStyle=orthogonalEdgeStyle;rounded=0;orthogonalLoop=1;jettySize=auto;html=1;exitX=1;exitY=0.5;exitDx=0;exitDy=0;entryX=0;entryY=0.5;entryDx=0;entryDy=0;" parent="1" source="C-jzJU40o5kUoUtQNF1t-64" target="C-jzJU40o5kUoUtQNF1t-97" edge="1">
          <mxGeometry relative="1" as="geometry" />
        </mxCell>
        <mxCell id="C-jzJU40o5kUoUtQNF1t-223" value="" style="edgeStyle=orthogonalEdgeStyle;rounded=0;orthogonalLoop=1;jettySize=auto;html=1;" parent="1" source="C-jzJU40o5kUoUtQNF1t-64" target="C-jzJU40o5kUoUtQNF1t-222" edge="1">
          <mxGeometry relative="1" as="geometry" />
        </mxCell>
        <mxCell id="C-jzJU40o5kUoUtQNF1t-240" style="edgeStyle=orthogonalEdgeStyle;rounded=0;orthogonalLoop=1;jettySize=auto;html=1;exitX=0;exitY=1;exitDx=0;exitDy=0;entryX=1;entryY=0.5;entryDx=0;entryDy=0;" parent="1" source="C-jzJU40o5kUoUtQNF1t-64" target="C-jzJU40o5kUoUtQNF1t-239" edge="1">
          <mxGeometry relative="1" as="geometry" />
        </mxCell>
        <mxCell id="C-jzJU40o5kUoUtQNF1t-242" style="edgeStyle=orthogonalEdgeStyle;rounded=0;orthogonalLoop=1;jettySize=auto;html=1;exitX=1;exitY=0.5;exitDx=0;exitDy=0;entryX=0;entryY=0.5;entryDx=0;entryDy=0;" parent="1" source="C-jzJU40o5kUoUtQNF1t-64" target="C-jzJU40o5kUoUtQNF1t-241" edge="1">
          <mxGeometry relative="1" as="geometry" />
        </mxCell>
        <mxCell id="C-jzJU40o5kUoUtQNF1t-245" style="edgeStyle=orthogonalEdgeStyle;rounded=0;orthogonalLoop=1;jettySize=auto;html=1;exitX=0;exitY=0;exitDx=0;exitDy=0;entryX=1;entryY=0.5;entryDx=0;entryDy=0;" parent="1" source="C-jzJU40o5kUoUtQNF1t-64" target="C-jzJU40o5kUoUtQNF1t-244" edge="1">
          <mxGeometry relative="1" as="geometry" />
        </mxCell>
        <mxCell id="C-jzJU40o5kUoUtQNF1t-64" value="Source 2" style="rhombus;whiteSpace=wrap;html=1;fillColor=#008a00;fontColor=#ffffff;strokeColor=#005700;" parent="1" vertex="1">
          <mxGeometry x="948.17" y="2750" width="131" height="90" as="geometry" />
        </mxCell>
        <mxCell id="C-jzJU40o5kUoUtQNF1t-75" style="edgeStyle=orthogonalEdgeStyle;rounded=0;orthogonalLoop=1;jettySize=auto;html=1;exitX=0.5;exitY=1;exitDx=0;exitDy=0;" parent="1" source="C-jzJU40o5kUoUtQNF1t-70" target="C-jzJU40o5kUoUtQNF1t-74" edge="1">
          <mxGeometry relative="1" as="geometry" />
        </mxCell>
        <mxCell id="C-jzJU40o5kUoUtQNF1t-70" value="Half-Life: Alyx" style="rhombus;whiteSpace=wrap;html=1;fillColor=#008a00;fontColor=#ffffff;strokeColor=#005700;" parent="1" vertex="1">
          <mxGeometry x="1059.17" y="2886" width="110" height="90" as="geometry" />
        </mxCell>
        <mxCell id="C-jzJU40o5kUoUtQNF1t-72" value="Deadlock" style="rhombus;whiteSpace=wrap;html=1;fillColor=#008a00;fontColor=#ffffff;strokeColor=#005700;" parent="1" vertex="1">
          <mxGeometry x="909.17" y="2886" width="110" height="90" as="geometry" />
        </mxCell>
        <mxCell id="C-jzJU40o5kUoUtQNF1t-74" value="s&amp;amp;box" style="rhombus;whiteSpace=wrap;html=1;fillColor=#d80073;fontColor=#ffffff;strokeColor=#A50040;" parent="1" vertex="1">
          <mxGeometry x="1059.17" y="3026" width="110" height="90" as="geometry" />
        </mxCell>
        <mxCell id="C-jzJU40o5kUoUtQNF1t-79" value="SiN Episodes" style="rhombus;whiteSpace=wrap;html=1;fillColor=#d80073;fontColor=#ffffff;strokeColor=#A50040;" parent="1" vertex="1">
          <mxGeometry x="1155.5" y="929" width="100" height="80" as="geometry" />
        </mxCell>
        <mxCell id="C-jzJU40o5kUoUtQNF1t-85" value="" style="edgeStyle=orthogonalEdgeStyle;rounded=0;orthogonalLoop=1;jettySize=auto;html=1;" parent="1" source="C-jzJU40o5kUoUtQNF1t-81" target="C-jzJU40o5kUoUtQNF1t-84" edge="1">
          <mxGeometry relative="1" as="geometry" />
        </mxCell>
        <mxCell id="C-jzJU40o5kUoUtQNF1t-81" value="&lt;div&gt;Half-Life 2 Beta /&lt;/div&gt;&lt;div&gt;Source 2003 Leak&lt;/div&gt;" style="rhombus;whiteSpace=wrap;html=1;fillColor=#008a00;fontColor=#ffffff;strokeColor=#005700;" parent="1" vertex="1">
          <mxGeometry x="809.5" y="630" width="150" height="88.5" as="geometry" />
        </mxCell>
        <mxCell id="C-jzJU40o5kUoUtQNF1t-84" value="&lt;div&gt;Vampire: The&lt;/div&gt;&lt;div&gt;Masquerade - Bloodlines&lt;/div&gt;" style="rhombus;whiteSpace=wrap;html=1;fillColor=#d80073;fontColor=#ffffff;strokeColor=#A50040;" parent="1" vertex="1">
          <mxGeometry x="797.5" y="750" width="174" height="90" as="geometry" />
        </mxCell>
        <mxCell id="C-jzJU40o5kUoUtQNF1t-89" value="" style="edgeStyle=orthogonalEdgeStyle;rounded=0;orthogonalLoop=1;jettySize=auto;html=1;" parent="1" source="C-jzJU40o5kUoUtQNF1t-86" target="C-jzJU40o5kUoUtQNF1t-88" edge="1">
          <mxGeometry relative="1" as="geometry" />
        </mxCell>
        <mxCell id="C-jzJU40o5kUoUtQNF1t-90" value="" style="edgeStyle=orthogonalEdgeStyle;rounded=0;orthogonalLoop=1;jettySize=auto;html=1;" parent="1" source="C-jzJU40o5kUoUtQNF1t-86" target="C-jzJU40o5kUoUtQNF1t-88" edge="1">
          <mxGeometry relative="1" as="geometry" />
        </mxCell>
        <mxCell id="C-jzJU40o5kUoUtQNF1t-92" value="" style="edgeStyle=orthogonalEdgeStyle;rounded=0;orthogonalLoop=1;jettySize=auto;html=1;" parent="1" source="C-jzJU40o5kUoUtQNF1t-86" target="C-jzJU40o5kUoUtQNF1t-91" edge="1">
          <mxGeometry relative="1" as="geometry" />
        </mxCell>
        <mxCell id="C-jzJU40o5kUoUtQNF1t-125" value="" style="edgeStyle=orthogonalEdgeStyle;rounded=0;orthogonalLoop=1;jettySize=auto;html=1;entryX=0.5;entryY=0;entryDx=0;entryDy=0;" parent="1" source="C-jzJU40o5kUoUtQNF1t-86" target="C-jzJU40o5kUoUtQNF1t-124" edge="1">
          <mxGeometry relative="1" as="geometry">
            <mxPoint x="1014.75" y="1560" as="targetPoint" />
          </mxGeometry>
        </mxCell>
        <mxCell id="C-jzJU40o5kUoUtQNF1t-156" style="edgeStyle=orthogonalEdgeStyle;rounded=0;orthogonalLoop=1;jettySize=auto;html=1;exitX=1;exitY=0;exitDx=0;exitDy=0;entryX=0;entryY=0.5;entryDx=0;entryDy=0;" parent="1" source="C-jzJU40o5kUoUtQNF1t-86" edge="1">
          <mxGeometry relative="1" as="geometry">
            <mxPoint x="1249.25" y="1380" as="targetPoint" />
          </mxGeometry>
        </mxCell>
        <mxCell id="C-jzJU40o5kUoUtQNF1t-171" style="edgeStyle=orthogonalEdgeStyle;rounded=0;orthogonalLoop=1;jettySize=auto;html=1;exitX=0;exitY=1;exitDx=0;exitDy=0;" parent="1" source="C-jzJU40o5kUoUtQNF1t-86" target="C-jzJU40o5kUoUtQNF1t-170" edge="1">
          <mxGeometry relative="1" as="geometry">
            <Array as="points">
              <mxPoint x="958" y="1455" />
              <mxPoint x="958" y="1520" />
            </Array>
          </mxGeometry>
        </mxCell>
        <mxCell id="C-jzJU40o5kUoUtQNF1t-86" value="&lt;div&gt;The Orange Box /&lt;/div&gt;&lt;div&gt;Source 2007&lt;/div&gt;" style="rhombus;whiteSpace=wrap;html=1;fillColor=#008a00;fontColor=#ffffff;strokeColor=#005700;" parent="1" vertex="1">
          <mxGeometry x="944.75" y="1380" width="140" height="100" as="geometry" />
        </mxCell>
        <mxCell id="C-jzJU40o5kUoUtQNF1t-190" style="edgeStyle=orthogonalEdgeStyle;rounded=0;orthogonalLoop=1;jettySize=auto;html=1;exitX=0;exitY=0;exitDx=0;exitDy=0;entryX=1;entryY=0.5;entryDx=0;entryDy=0;" parent="1" source="C-jzJU40o5kUoUtQNF1t-88" target="C-jzJU40o5kUoUtQNF1t-189" edge="1">
          <mxGeometry relative="1" as="geometry" />
        </mxCell>
        <mxCell id="C-jzJU40o5kUoUtQNF1t-191" style="edgeStyle=orthogonalEdgeStyle;rounded=0;orthogonalLoop=1;jettySize=auto;html=1;exitX=0;exitY=1;exitDx=0;exitDy=0;entryX=1;entryY=0.5;entryDx=0;entryDy=0;" parent="1" source="C-jzJU40o5kUoUtQNF1t-88" target="C-jzJU40o5kUoUtQNF1t-188" edge="1">
          <mxGeometry relative="1" as="geometry" />
        </mxCell>
        <mxCell id="C-jzJU40o5kUoUtQNF1t-88" value="Team Fortress 2" style="rhombus;whiteSpace=wrap;html=1;fillColor=#008a00;fontColor=#ffffff;strokeColor=#005700;" parent="1" vertex="1">
          <mxGeometry x="683.25" y="1380" width="140" height="100" as="geometry" />
        </mxCell>
        <mxCell id="C-jzJU40o5kUoUtQNF1t-91" value="Portal" style="rhombus;whiteSpace=wrap;html=1;fillColor=#008a00;fontColor=#ffffff;strokeColor=#005700;" parent="1" vertex="1">
          <mxGeometry x="1271" y="1430" width="108.5" height="70" as="geometry" />
        </mxCell>
        <mxCell id="C-jzJU40o5kUoUtQNF1t-95" value="Team Fortress" style="html=1;whiteSpace=wrap;aspect=fixed;shape=isoRectangle;movable=1;resizable=1;rotatable=1;deletable=1;editable=1;locked=0;connectable=1;points=[[0,0.5,0,0,0],[0.5,0,0,0,0],[0.5,1,0,0,0],[1,0.5,0,0,0]];fillColor=#fa6800;fontColor=#000000;strokeColor=#C73500;rounded=1;" parent="1" vertex="1">
          <mxGeometry x="784" y="10" width="100" height="60" as="geometry" />
        </mxCell>
        <mxCell id="C-jzJU40o5kUoUtQNF1t-97" value="&lt;div&gt;DOTA 2&lt;/div&gt;" style="rhombus;whiteSpace=wrap;html=1;fillColor=#008a00;fontColor=#ffffff;strokeColor=#005700;" parent="1" vertex="1">
          <mxGeometry x="1175.58" y="2710" width="80" height="70" as="geometry" />
        </mxCell>
        <mxCell id="C-jzJU40o5kUoUtQNF1t-99" value="Team Fortress Classic" style="rhombus;whiteSpace=wrap;html=1;fillColor=#008a00;fontColor=#ffffff;strokeColor=#005700;" parent="1" vertex="1">
          <mxGeometry x="560" y="20" width="150" height="98.5" as="geometry" />
        </mxCell>
        <mxCell id="C-jzJU40o5kUoUtQNF1t-103" value="Day of Defeat" style="rhombus;whiteSpace=wrap;html=1;fillColor=#FF6666;fontColor=#000000;strokeColor=#990000;" parent="1" vertex="1">
          <mxGeometry x="480" y="95.5" width="130" height="80" as="geometry" />
        </mxCell>
        <mxCell id="C-jzJU40o5kUoUtQNF1t-105" value="Counter-Strike" style="rhombus;whiteSpace=wrap;html=1;fillColor=#FF6666;fontColor=#000000;strokeColor=#990000;" parent="1" vertex="1">
          <mxGeometry x="530" y="183.5" width="130" height="80" as="geometry" />
        </mxCell>
        <mxCell id="C-jzJU40o5kUoUtQNF1t-107" value="Ricochet" style="rhombus;whiteSpace=wrap;html=1;fillColor=#008a00;fontColor=#ffffff;strokeColor=#005700;" parent="1" vertex="1">
          <mxGeometry x="590" y="267" width="120" height="80" as="geometry" />
        </mxCell>
        <mxCell id="C-jzJU40o5kUoUtQNF1t-109" value="Half-Life: Opposing Force" style="rhombus;whiteSpace=wrap;html=1;fillColor=#1ba1e2;fontColor=#ffffff;strokeColor=#006EAF;" parent="1" vertex="1">
          <mxGeometry x="1125.5" y="80" width="160" height="95.5" as="geometry" />
        </mxCell>
        <mxCell id="C-jzJU40o5kUoUtQNF1t-111" value="Half-Life: Blue Shift" style="rhombus;whiteSpace=wrap;html=1;fillColor=#1ba1e2;fontColor=#ffffff;strokeColor=#006EAF;" parent="1" vertex="1">
          <mxGeometry x="1220" y="143" width="148.83" height="87" as="geometry" />
        </mxCell>
        <mxCell id="C-jzJU40o5kUoUtQNF1t-113" value="&lt;div&gt;Half-Life PS2 Port /&lt;/div&gt;&lt;div&gt;Half-Life: Decay&lt;br&gt;&lt;/div&gt;" style="rhombus;whiteSpace=wrap;html=1;fillColor=#1ba1e2;fontColor=#ffffff;strokeColor=#006EAF;" parent="1" vertex="1">
          <mxGeometry x="1160" y="219" width="148.83" height="90" as="geometry" />
        </mxCell>
        <mxCell id="C-jzJU40o5kUoUtQNF1t-115" value="Sven Co-Op" style="rhombus;whiteSpace=wrap;html=1;fillColor=#fa6800;fontColor=#000000;strokeColor=#C73500;" parent="1" vertex="1">
          <mxGeometry x="689.5" y="340" width="120" height="80" as="geometry" />
        </mxCell>
        <mxCell id="C-jzJU40o5kUoUtQNF1t-118" value="Deathmatch Classic" style="rhombus;whiteSpace=wrap;html=1;fillColor=#008a00;fontColor=#ffffff;strokeColor=#005700;" parent="1" vertex="1">
          <mxGeometry x="860" y="277" width="140" height="80" as="geometry" />
        </mxCell>
        <mxCell id="C-jzJU40o5kUoUtQNF1t-192" style="edgeStyle=orthogonalEdgeStyle;rounded=0;orthogonalLoop=1;jettySize=auto;html=1;exitX=0.5;exitY=1;exitDx=0;exitDy=0;entryX=0.5;entryY=0;entryDx=0;entryDy=0;" parent="1" source="C-jzJU40o5kUoUtQNF1t-120" target="C-jzJU40o5kUoUtQNF1t-179" edge="1">
          <mxGeometry relative="1" as="geometry" />
        </mxCell>
        <mxCell id="C-jzJU40o5kUoUtQNF1t-205" style="edgeStyle=orthogonalEdgeStyle;rounded=0;orthogonalLoop=1;jettySize=auto;html=1;exitX=0;exitY=1;exitDx=0;exitDy=0;" parent="1" source="C-jzJU40o5kUoUtQNF1t-120" target="C-jzJU40o5kUoUtQNF1t-204" edge="1">
          <mxGeometry relative="1" as="geometry" />
        </mxCell>
        <mxCell id="C-jzJU40o5kUoUtQNF1t-207" style="edgeStyle=orthogonalEdgeStyle;rounded=0;orthogonalLoop=1;jettySize=auto;html=1;exitX=1;exitY=1;exitDx=0;exitDy=0;entryX=0;entryY=0.5;entryDx=0;entryDy=0;" parent="1" source="C-jzJU40o5kUoUtQNF1t-120" target="C-jzJU40o5kUoUtQNF1t-206" edge="1">
          <mxGeometry relative="1" as="geometry" />
        </mxCell>
        <mxCell id="C-jzJU40o5kUoUtQNF1t-209" style="edgeStyle=orthogonalEdgeStyle;rounded=0;orthogonalLoop=1;jettySize=auto;html=1;exitX=0;exitY=0.5;exitDx=0;exitDy=0;entryX=1;entryY=0.5;entryDx=0;entryDy=0;" parent="1" source="C-jzJU40o5kUoUtQNF1t-120" target="C-jzJU40o5kUoUtQNF1t-208" edge="1">
          <mxGeometry relative="1" as="geometry" />
        </mxCell>
        <mxCell id="C-jzJU40o5kUoUtQNF1t-215" style="edgeStyle=orthogonalEdgeStyle;rounded=0;orthogonalLoop=1;jettySize=auto;html=1;exitX=0.5;exitY=0;exitDx=0;exitDy=0;entryX=1;entryY=0.5;entryDx=0;entryDy=0;" parent="1" source="C-jzJU40o5kUoUtQNF1t-120" target="C-jzJU40o5kUoUtQNF1t-210" edge="1">
          <mxGeometry relative="1" as="geometry" />
        </mxCell>
        <mxCell id="C-jzJU40o5kUoUtQNF1t-120" value="Garry&#39;s Mod" style="rhombus;whiteSpace=wrap;html=1;fillColor=#1ba1e2;fontColor=#ffffff;strokeColor=#006EAF;" parent="1" vertex="1">
          <mxGeometry x="718.25" y="1650" width="100" height="80" as="geometry" />
        </mxCell>
        <mxCell id="C-jzJU40o5kUoUtQNF1t-130" value="" style="edgeStyle=orthogonalEdgeStyle;rounded=0;orthogonalLoop=1;jettySize=auto;html=1;" parent="1" source="C-jzJU40o5kUoUtQNF1t-124" target="C-jzJU40o5kUoUtQNF1t-129" edge="1">
          <mxGeometry relative="1" as="geometry" />
        </mxCell>
        <mxCell id="C-jzJU40o5kUoUtQNF1t-173" value="" style="edgeStyle=orthogonalEdgeStyle;rounded=0;orthogonalLoop=1;jettySize=auto;html=1;" parent="1" source="C-jzJU40o5kUoUtQNF1t-124" target="C-jzJU40o5kUoUtQNF1t-172" edge="1">
          <mxGeometry relative="1" as="geometry" />
        </mxCell>
        <mxCell id="C-jzJU40o5kUoUtQNF1t-174" style="edgeStyle=orthogonalEdgeStyle;rounded=0;orthogonalLoop=1;jettySize=auto;html=1;exitX=0;exitY=0.5;exitDx=0;exitDy=0;" parent="1" source="C-jzJU40o5kUoUtQNF1t-124" target="C-jzJU40o5kUoUtQNF1t-120" edge="1">
          <mxGeometry relative="1" as="geometry" />
        </mxCell>
        <mxCell id="C-jzJU40o5kUoUtQNF1t-178" style="edgeStyle=orthogonalEdgeStyle;rounded=0;orthogonalLoop=1;jettySize=auto;html=1;exitX=1;exitY=0.5;exitDx=0;exitDy=0;entryX=0;entryY=0.5;entryDx=0;entryDy=0;" parent="1" source="C-jzJU40o5kUoUtQNF1t-124" target="C-jzJU40o5kUoUtQNF1t-175" edge="1">
          <mxGeometry relative="1" as="geometry" />
        </mxCell>
        <mxCell id="C-jzJU40o5kUoUtQNF1t-199" style="edgeStyle=orthogonalEdgeStyle;rounded=0;orthogonalLoop=1;jettySize=auto;html=1;exitX=1;exitY=1;exitDx=0;exitDy=0;entryX=0;entryY=0.5;entryDx=0;entryDy=0;" parent="1" source="C-jzJU40o5kUoUtQNF1t-124" target="C-jzJU40o5kUoUtQNF1t-198" edge="1">
          <mxGeometry relative="1" as="geometry" />
        </mxCell>
        <mxCell id="C-jzJU40o5kUoUtQNF1t-124" value="&lt;div&gt;Left 4 Dead /&lt;/div&gt;&lt;div&gt;Source 2009&lt;/div&gt;" style="rhombus;whiteSpace=wrap;html=1;fillColor=#008a00;fontColor=#ffffff;strokeColor=#005700;" parent="1" vertex="1">
          <mxGeometry x="944.25" y="1640" width="140" height="100" as="geometry" />
        </mxCell>
        <mxCell id="C-jzJU40o5kUoUtQNF1t-132" value="" style="edgeStyle=orthogonalEdgeStyle;rounded=0;orthogonalLoop=1;jettySize=auto;html=1;exitX=0.5;exitY=1;exitDx=0;exitDy=0;" parent="1" source="C-jzJU40o5kUoUtQNF1t-129" target="C-jzJU40o5kUoUtQNF1t-131" edge="1">
          <mxGeometry relative="1" as="geometry">
            <mxPoint x="1014.25" y="2050" as="sourcePoint" />
          </mxGeometry>
        </mxCell>
        <mxCell id="C-jzJU40o5kUoUtQNF1t-154" value="" style="edgeStyle=orthogonalEdgeStyle;rounded=0;orthogonalLoop=1;jettySize=auto;html=1;" parent="1" source="C-jzJU40o5kUoUtQNF1t-129" target="C-jzJU40o5kUoUtQNF1t-153" edge="1">
          <mxGeometry relative="1" as="geometry" />
        </mxCell>
        <mxCell id="C-jzJU40o5kUoUtQNF1t-203" value="" style="edgeStyle=orthogonalEdgeStyle;rounded=0;orthogonalLoop=1;jettySize=auto;html=1;" parent="1" source="C-jzJU40o5kUoUtQNF1t-129" target="C-jzJU40o5kUoUtQNF1t-202" edge="1">
          <mxGeometry relative="1" as="geometry" />
        </mxCell>
        <mxCell id="C-jzJU40o5kUoUtQNF1t-129" value="Alien Swarm Branch" style="rhombus;whiteSpace=wrap;html=1;fillColor=#008a00;fontColor=#ffffff;strokeColor=#005700;" parent="1" vertex="1">
          <mxGeometry x="944.25" y="1910" width="140" height="100" as="geometry" />
        </mxCell>
        <mxCell id="C-jzJU40o5kUoUtQNF1t-134" value="" style="edgeStyle=orthogonalEdgeStyle;rounded=0;orthogonalLoop=1;jettySize=auto;html=1;" parent="1" source="C-jzJU40o5kUoUtQNF1t-131" target="C-jzJU40o5kUoUtQNF1t-133" edge="1">
          <mxGeometry relative="1" as="geometry" />
        </mxCell>
        <mxCell id="C-jzJU40o5kUoUtQNF1t-144" value="" style="edgeStyle=orthogonalEdgeStyle;rounded=0;orthogonalLoop=1;jettySize=auto;html=1;" parent="1" source="C-jzJU40o5kUoUtQNF1t-131" target="C-jzJU40o5kUoUtQNF1t-143" edge="1">
          <mxGeometry relative="1" as="geometry" />
        </mxCell>
        <mxCell id="C-jzJU40o5kUoUtQNF1t-152" value="" style="edgeStyle=orthogonalEdgeStyle;rounded=0;orthogonalLoop=1;jettySize=auto;html=1;" parent="1" source="C-jzJU40o5kUoUtQNF1t-131" target="C-jzJU40o5kUoUtQNF1t-151" edge="1">
          <mxGeometry relative="1" as="geometry" />
        </mxCell>
        <mxCell id="C-jzJU40o5kUoUtQNF1t-155" style="edgeStyle=orthogonalEdgeStyle;rounded=0;orthogonalLoop=1;jettySize=auto;html=1;exitX=0;exitY=0;exitDx=0;exitDy=0;entryX=1;entryY=0.5;entryDx=0;entryDy=0;" parent="1" source="C-jzJU40o5kUoUtQNF1t-131" target="C-jzJU40o5kUoUtQNF1t-149" edge="1">
          <mxGeometry relative="1" as="geometry" />
        </mxCell>
        <mxCell id="C-jzJU40o5kUoUtQNF1t-227" style="edgeStyle=orthogonalEdgeStyle;rounded=0;orthogonalLoop=1;jettySize=auto;html=1;exitX=1;exitY=0;exitDx=0;exitDy=0;entryX=0;entryY=0.5;entryDx=0;entryDy=0;" parent="1" source="C-jzJU40o5kUoUtQNF1t-131" target="C-jzJU40o5kUoUtQNF1t-226" edge="1">
          <mxGeometry relative="1" as="geometry" />
        </mxCell>
        <mxCell id="C-jzJU40o5kUoUtQNF1t-231" style="edgeStyle=orthogonalEdgeStyle;rounded=0;orthogonalLoop=1;jettySize=auto;html=1;exitX=1;exitY=1;exitDx=0;exitDy=0;entryX=0;entryY=0.5;entryDx=0;entryDy=0;" parent="1" source="C-jzJU40o5kUoUtQNF1t-131" target="C-jzJU40o5kUoUtQNF1t-228" edge="1">
          <mxGeometry relative="1" as="geometry" />
        </mxCell>
        <mxCell id="C-jzJU40o5kUoUtQNF1t-234" style="edgeStyle=orthogonalEdgeStyle;rounded=0;orthogonalLoop=1;jettySize=auto;html=1;exitX=0;exitY=1;exitDx=0;exitDy=0;entryX=1;entryY=0.5;entryDx=0;entryDy=0;" parent="1" source="C-jzJU40o5kUoUtQNF1t-131" target="C-jzJU40o5kUoUtQNF1t-232" edge="1">
          <mxGeometry relative="1" as="geometry" />
        </mxCell>
        <mxCell id="C-jzJU40o5kUoUtQNF1t-238" style="edgeStyle=orthogonalEdgeStyle;rounded=0;orthogonalLoop=1;jettySize=auto;html=1;exitX=0;exitY=0;exitDx=0;exitDy=0;" parent="1" source="C-jzJU40o5kUoUtQNF1t-131" edge="1">
          <mxGeometry relative="1" as="geometry">
            <mxPoint x="810" y="2130" as="targetPoint" />
          </mxGeometry>
        </mxCell>
        <mxCell id="C-jzJU40o5kUoUtQNF1t-131" value="Portal 2 Branch" style="rhombus;whiteSpace=wrap;html=1;fillColor=#008a00;fontColor=#ffffff;strokeColor=#005700;" parent="1" vertex="1">
          <mxGeometry x="944.25" y="2130" width="140" height="100" as="geometry" />
        </mxCell>
        <mxCell id="C-jzJU40o5kUoUtQNF1t-136" value="" style="edgeStyle=orthogonalEdgeStyle;rounded=0;orthogonalLoop=1;jettySize=auto;html=1;" parent="1" source="C-jzJU40o5kUoUtQNF1t-133" target="C-jzJU40o5kUoUtQNF1t-135" edge="1">
          <mxGeometry relative="1" as="geometry" />
        </mxCell>
        <mxCell id="C-jzJU40o5kUoUtQNF1t-133" value="Titanfall" style="rhombus;whiteSpace=wrap;html=1;fillColor=#d80073;fontColor=#ffffff;strokeColor=#A50040;" parent="1" vertex="1">
          <mxGeometry x="1278.7500000000002" y="2130" width="140" height="100" as="geometry" />
        </mxCell>
        <mxCell id="C-jzJU40o5kUoUtQNF1t-138" value="" style="edgeStyle=orthogonalEdgeStyle;rounded=0;orthogonalLoop=1;jettySize=auto;html=1;" parent="1" source="C-jzJU40o5kUoUtQNF1t-135" target="C-jzJU40o5kUoUtQNF1t-137" edge="1">
          <mxGeometry relative="1" as="geometry" />
        </mxCell>
        <mxCell id="C-jzJU40o5kUoUtQNF1t-135" value="Titanfall 2" style="rhombus;whiteSpace=wrap;html=1;fillColor=#d80073;fontColor=#ffffff;strokeColor=#A50040;" parent="1" vertex="1">
          <mxGeometry x="1278.7500000000002" y="2270" width="140" height="100" as="geometry" />
        </mxCell>
        <mxCell id="C-jzJU40o5kUoUtQNF1t-137" value="Apex Legends" style="rhombus;whiteSpace=wrap;html=1;fillColor=#d80073;fontColor=#ffffff;strokeColor=#A50040;" parent="1" vertex="1">
          <mxGeometry x="1278.7500000000002" y="2410" width="140" height="100" as="geometry" />
        </mxCell>
        <mxCell id="C-jzJU40o5kUoUtQNF1t-141" value="Half-Life 2: Episode 2" style="rhombus;whiteSpace=wrap;html=1;fillColor=#008a00;fontColor=#ffffff;strokeColor=#005700;" parent="1" vertex="1">
          <mxGeometry x="1249.25" y="1340" width="152" height="80" as="geometry" />
        </mxCell>
        <mxCell id="C-jzJU40o5kUoUtQNF1t-146" value="" style="edgeStyle=orthogonalEdgeStyle;rounded=0;orthogonalLoop=1;jettySize=auto;html=1;" parent="1" source="C-jzJU40o5kUoUtQNF1t-143" target="C-jzJU40o5kUoUtQNF1t-145" edge="1">
          <mxGeometry relative="1" as="geometry" />
        </mxCell>
        <mxCell id="C-jzJU40o5kUoUtQNF1t-158" style="edgeStyle=orthogonalEdgeStyle;rounded=0;orthogonalLoop=1;jettySize=auto;html=1;exitX=0;exitY=1;exitDx=0;exitDy=0;entryX=1;entryY=0.5;entryDx=0;entryDy=0;" parent="1" source="C-jzJU40o5kUoUtQNF1t-143" target="C-jzJU40o5kUoUtQNF1t-157" edge="1">
          <mxGeometry relative="1" as="geometry" />
        </mxCell>
        <mxCell id="C-jzJU40o5kUoUtQNF1t-219" style="edgeStyle=orthogonalEdgeStyle;rounded=0;orthogonalLoop=1;jettySize=auto;html=1;exitX=1;exitY=0.5;exitDx=0;exitDy=0;entryX=0;entryY=0.5;entryDx=0;entryDy=0;" parent="1" source="C-jzJU40o5kUoUtQNF1t-143" target="C-jzJU40o5kUoUtQNF1t-218" edge="1">
          <mxGeometry relative="1" as="geometry" />
        </mxCell>
        <mxCell id="C-jzJU40o5kUoUtQNF1t-221" style="edgeStyle=orthogonalEdgeStyle;rounded=0;orthogonalLoop=1;jettySize=auto;html=1;exitX=1;exitY=1;exitDx=0;exitDy=0;entryX=0;entryY=0.5;entryDx=0;entryDy=0;" parent="1" source="C-jzJU40o5kUoUtQNF1t-143" target="C-jzJU40o5kUoUtQNF1t-220" edge="1">
          <mxGeometry relative="1" as="geometry" />
        </mxCell>
        <mxCell id="C-jzJU40o5kUoUtQNF1t-225" style="edgeStyle=orthogonalEdgeStyle;rounded=0;orthogonalLoop=1;jettySize=auto;html=1;exitX=1;exitY=0;exitDx=0;exitDy=0;entryX=0;entryY=0.5;entryDx=0;entryDy=0;" parent="1" source="C-jzJU40o5kUoUtQNF1t-143" target="C-jzJU40o5kUoUtQNF1t-224" edge="1">
          <mxGeometry relative="1" as="geometry">
            <Array as="points">
              <mxPoint x="1073.99" y="2477" />
              <mxPoint x="1073.99" y="2411" />
            </Array>
          </mxGeometry>
        </mxCell>
        <mxCell id="C-jzJU40o5kUoUtQNF1t-243" style="edgeStyle=orthogonalEdgeStyle;rounded=0;orthogonalLoop=1;jettySize=auto;html=1;exitX=0.5;exitY=1;exitDx=0;exitDy=0;entryX=0.5;entryY=0;entryDx=0;entryDy=0;" parent="1" source="C-jzJU40o5kUoUtQNF1t-143" target="C-jzJU40o5kUoUtQNF1t-64" edge="1">
          <mxGeometry relative="1" as="geometry" />
        </mxCell>
        <mxCell id="C-jzJU40o5kUoUtQNF1t-247" style="edgeStyle=orthogonalEdgeStyle;rounded=0;orthogonalLoop=1;jettySize=auto;html=1;exitX=0;exitY=0;exitDx=0;exitDy=0;entryX=1;entryY=0.5;entryDx=0;entryDy=0;" parent="1" source="C-jzJU40o5kUoUtQNF1t-143" target="C-jzJU40o5kUoUtQNF1t-246" edge="1">
          <mxGeometry relative="1" as="geometry" />
        </mxCell>
        <mxCell id="C-jzJU40o5kUoUtQNF1t-249" style="edgeStyle=orthogonalEdgeStyle;rounded=0;orthogonalLoop=1;jettySize=auto;html=1;exitX=0;exitY=0.5;exitDx=0;exitDy=0;entryX=1;entryY=0.5;entryDx=0;entryDy=0;" parent="1" source="C-jzJU40o5kUoUtQNF1t-143" target="C-jzJU40o5kUoUtQNF1t-248" edge="1">
          <mxGeometry relative="1" as="geometry" />
        </mxCell>
        <mxCell id="C-jzJU40o5kUoUtQNF1t-252" style="edgeStyle=orthogonalEdgeStyle;rounded=0;orthogonalLoop=1;jettySize=auto;html=1;exitX=1;exitY=1;exitDx=0;exitDy=0;entryX=0;entryY=0.5;entryDx=0;entryDy=0;" parent="1" source="C-jzJU40o5kUoUtQNF1t-143" target="C-jzJU40o5kUoUtQNF1t-250" edge="1">
          <mxGeometry relative="1" as="geometry" />
        </mxCell>
        <mxCell id="C-jzJU40o5kUoUtQNF1t-143" value="&lt;div&gt;CS:GO /&lt;/div&gt;&lt;div&gt;Source 2013&lt;br&gt;&lt;/div&gt;" style="rhombus;whiteSpace=wrap;html=1;fillColor=#008a00;fontColor=#ffffff;strokeColor=#005700;" parent="1" vertex="1">
          <mxGeometry x="944.24" y="2452" width="140" height="100" as="geometry" />
        </mxCell>
        <mxCell id="C-jzJU40o5kUoUtQNF1t-145" value="Black Mesa" style="rhombus;whiteSpace=wrap;html=1;fillColor=#d80073;fontColor=#ffffff;strokeColor=#A50040;" parent="1" vertex="1">
          <mxGeometry x="618.74" y="2410" width="120" height="80" as="geometry" />
        </mxCell>
        <mxCell id="C-jzJU40o5kUoUtQNF1t-149" value="Dino D-Day" style="rhombus;whiteSpace=wrap;html=1;fillColor=#d80073;fontColor=#ffffff;strokeColor=#A50040;" parent="1" vertex="1">
          <mxGeometry x="800" y="2040" width="102.75" height="80" as="geometry" />
        </mxCell>
        <mxCell id="C-jzJU40o5kUoUtQNF1t-151" value="The Stanley Parable" style="rhombus;whiteSpace=wrap;html=1;fillColor=#d80073;fontColor=#ffffff;strokeColor=#A50040;" parent="1" vertex="1">
          <mxGeometry x="754" y="2160" width="140" height="100" as="geometry" />
        </mxCell>
        <mxCell id="C-jzJU40o5kUoUtQNF1t-153" value="Lambda Wars" style="rhombus;whiteSpace=wrap;html=1;fillColor=#fa6800;fontColor=#000000;strokeColor=#C73500;" parent="1" vertex="1">
          <mxGeometry x="1197" y="1920" width="114" height="80" as="geometry" />
        </mxCell>
        <mxCell id="C-jzJU40o5kUoUtQNF1t-157" value="Insurgency" style="rhombus;whiteSpace=wrap;html=1;fillColor=#d80073;fontColor=#ffffff;strokeColor=#A50040;" parent="1" vertex="1">
          <mxGeometry x="771.49" y="2552" width="122.5" height="82" as="geometry" />
        </mxCell>
        <mxCell id="C-jzJU40o5kUoUtQNF1t-162" value="" style="edgeStyle=orthogonalEdgeStyle;rounded=0;orthogonalLoop=1;jettySize=auto;html=1;" parent="1" source="C-jzJU40o5kUoUtQNF1t-159" target="C-jzJU40o5kUoUtQNF1t-161" edge="1">
          <mxGeometry relative="1" as="geometry" />
        </mxCell>
        <mxCell id="C-jzJU40o5kUoUtQNF1t-163" style="edgeStyle=orthogonalEdgeStyle;rounded=0;orthogonalLoop=1;jettySize=auto;html=1;exitX=0.5;exitY=1;exitDx=0;exitDy=0;entryX=0.5;entryY=0;entryDx=0;entryDy=0;" parent="1" source="C-jzJU40o5kUoUtQNF1t-159" target="C-jzJU40o5kUoUtQNF1t-86" edge="1">
          <mxGeometry relative="1" as="geometry" />
        </mxCell>
        <mxCell id="C-jzJU40o5kUoUtQNF1t-183" style="edgeStyle=orthogonalEdgeStyle;rounded=0;orthogonalLoop=1;jettySize=auto;html=1;exitX=0;exitY=0.5;exitDx=0;exitDy=0;entryX=1;entryY=0.5;entryDx=0;entryDy=0;" parent="1" source="C-jzJU40o5kUoUtQNF1t-159" target="C-jzJU40o5kUoUtQNF1t-182" edge="1">
          <mxGeometry relative="1" as="geometry" />
        </mxCell>
        <mxCell id="C-jzJU40o5kUoUtQNF1t-159" value="&lt;div&gt;Half-Life 2: Episode 1 /&amp;nbsp;&lt;/div&gt;&lt;div&gt;Source 2006&lt;/div&gt;" style="rhombus;whiteSpace=wrap;html=1;fillColor=#008a00;fontColor=#ffffff;strokeColor=#005700;" parent="1" vertex="1">
          <mxGeometry x="924.5" y="1220" width="181" height="86" as="geometry" />
        </mxCell>
        <mxCell id="C-jzJU40o5kUoUtQNF1t-161" value="Half-Life 2: Lost Coast" style="rhombus;whiteSpace=wrap;html=1;fillColor=#008a00;fontColor=#ffffff;strokeColor=#005700;" parent="1" vertex="1">
          <mxGeometry x="1185.5" y="1220" width="181" height="86" as="geometry" />
        </mxCell>
        <mxCell id="C-jzJU40o5kUoUtQNF1t-164" value="Half-Life: Source" style="rhombus;whiteSpace=wrap;html=1;fillColor=#008a00;fontColor=#ffffff;strokeColor=#005700;" parent="1" vertex="1">
          <mxGeometry x="687.75" y="980" width="131" height="90" as="geometry" />
        </mxCell>
        <mxCell id="C-jzJU40o5kUoUtQNF1t-166" value="Counter-Strike: Source" style="rhombus;whiteSpace=wrap;html=1;fillColor=#008a00;fontColor=#ffffff;strokeColor=#005700;" parent="1" vertex="1">
          <mxGeometry x="810" y="1060" width="149.5" height="90" as="geometry" />
        </mxCell>
        <mxCell id="C-jzJU40o5kUoUtQNF1t-168" value="They Hunger" style="rhombus;whiteSpace=wrap;html=1;fillColor=#fa6800;fontColor=#000000;strokeColor=#C73500;" parent="1" vertex="1">
          <mxGeometry x="1080" y="300" width="120" height="80" as="geometry" />
        </mxCell>
        <mxCell id="C-jzJU40o5kUoUtQNF1t-170" value="Age of Chivarly" style="rhombus;whiteSpace=wrap;html=1;fillColor=#d80073;fontColor=#ffffff;strokeColor=#A50040;" parent="1" vertex="1">
          <mxGeometry x="797.5" y="1470" width="140" height="100" as="geometry" />
        </mxCell>
        <mxCell id="C-jzJU40o5kUoUtQNF1t-172" value="Postal III" style="rhombus;whiteSpace=wrap;html=1;fillColor=#d80073;fontColor=#ffffff;strokeColor=#A50040;" parent="1" vertex="1">
          <mxGeometry x="1148" y="1590" width="101.25" height="80" as="geometry" />
        </mxCell>
        <mxCell id="C-jzJU40o5kUoUtQNF1t-175" value="No More Room in Hell" style="rhombus;whiteSpace=wrap;html=1;fillColor=#d80073;fontColor=#ffffff;strokeColor=#A50040;" parent="1" vertex="1">
          <mxGeometry x="1148.0000000000002" y="1690" width="150" height="100" as="geometry" />
        </mxCell>
        <mxCell id="C-jzJU40o5kUoUtQNF1t-179" value="Prop Hunt" style="rhombus;whiteSpace=wrap;html=1;fillColor=#fa6800;fontColor=#000000;strokeColor=#C73500;" parent="1" vertex="1">
          <mxGeometry x="718" y="1810" width="100" height="80" as="geometry" />
        </mxCell>
        <mxCell id="C-jzJU40o5kUoUtQNF1t-182" value="Zombie Panic! Source" style="rhombus;whiteSpace=wrap;html=1;fillColor=#d80073;fontColor=#ffffff;strokeColor=#A50040;" parent="1" vertex="1">
          <mxGeometry x="678.75" y="1220" width="170" height="86" as="geometry" />
        </mxCell>
        <mxCell id="C-jzJU40o5kUoUtQNF1t-184" value="Half-Life 2: Deathmatch" style="rhombus;whiteSpace=wrap;html=1;fillColor=#008a00;fontColor=#ffffff;strokeColor=#005700;" parent="1" vertex="1">
          <mxGeometry x="1070.5" y="1000" width="149.5" height="90" as="geometry" />
        </mxCell>
        <mxCell id="C-jzJU40o5kUoUtQNF1t-186" value="Half-Life Deathmatch: Source" style="rhombus;whiteSpace=wrap;html=1;fillColor=#008a00;fontColor=#ffffff;strokeColor=#005700;" parent="1" vertex="1">
          <mxGeometry x="618.75" y="870" width="200" height="90" as="geometry" />
        </mxCell>
        <mxCell id="C-jzJU40o5kUoUtQNF1t-188" value="Team Fortress 2 Classic" style="rhombus;whiteSpace=wrap;html=1;fillColor=#fa6800;fontColor=#000000;strokeColor=#C73500;" parent="1" vertex="1">
          <mxGeometry x="454.12" y="1450" width="160" height="80" as="geometry" />
        </mxCell>
        <mxCell id="C-jzJU40o5kUoUtQNF1t-189" value="Open Fortress" style="rhombus;whiteSpace=wrap;html=1;fillColor=#fa6800;fontColor=#000000;strokeColor=#C73500;" parent="1" vertex="1">
          <mxGeometry x="469.49" y="1350" width="129.25" height="80" as="geometry" />
        </mxCell>
        <mxCell id="C-jzJU40o5kUoUtQNF1t-201" value="" style="edgeStyle=orthogonalEdgeStyle;rounded=0;orthogonalLoop=1;jettySize=auto;html=1;" parent="1" source="C-jzJU40o5kUoUtQNF1t-198" target="C-jzJU40o5kUoUtQNF1t-200" edge="1">
          <mxGeometry relative="1" as="geometry" />
        </mxCell>
        <mxCell id="C-jzJU40o5kUoUtQNF1t-198" value="Left 4 Dead 2" style="rhombus;whiteSpace=wrap;html=1;fillColor=#008a00;fontColor=#ffffff;strokeColor=#005700;" parent="1" vertex="1">
          <mxGeometry x="1080" y="1775" width="120" height="85" as="geometry" />
        </mxCell>
        <mxCell id="C-jzJU40o5kUoUtQNF1t-200" value="Nuclear Dawn" style="rhombus;whiteSpace=wrap;html=1;fillColor=#d80073;fontColor=#ffffff;strokeColor=#A50040;" parent="1" vertex="1">
          <mxGeometry x="1280" y="1775" width="120" height="85" as="geometry" />
        </mxCell>
        <mxCell id="C-jzJU40o5kUoUtQNF1t-202" value="Source Filmmaker" style="rhombus;whiteSpace=wrap;html=1;fillColor=#008a00;fontColor=#ffffff;strokeColor=#005700;" parent="1" vertex="1">
          <mxGeometry x="754" y="1910" width="140" height="100" as="geometry" />
        </mxCell>
        <mxCell id="C-jzJU40o5kUoUtQNF1t-204" value="Trouble in Terrorist Town" style="rhombus;whiteSpace=wrap;html=1;fillColor=#fa6800;fontColor=#000000;strokeColor=#C73500;" parent="1" vertex="1">
          <mxGeometry x="618.75" y="1770" width="100" height="90" as="geometry" />
        </mxCell>
        <mxCell id="C-jzJU40o5kUoUtQNF1t-206" value="Jazztronauts" style="rhombus;whiteSpace=wrap;html=1;fillColor=#fa6800;fontColor=#000000;strokeColor=#C73500;" parent="1" vertex="1">
          <mxGeometry x="817.5" y="1760" width="100" height="80" as="geometry" />
        </mxCell>
        <mxCell id="C-jzJU40o5kUoUtQNF1t-213" value="" style="edgeStyle=orthogonalEdgeStyle;rounded=0;orthogonalLoop=1;jettySize=auto;html=1;" parent="1" source="C-jzJU40o5kUoUtQNF1t-208" target="C-jzJU40o5kUoUtQNF1t-212" edge="1">
          <mxGeometry relative="1" as="geometry" />
        </mxCell>
        <mxCell id="C-jzJU40o5kUoUtQNF1t-217" style="edgeStyle=orthogonalEdgeStyle;rounded=0;orthogonalLoop=1;jettySize=auto;html=1;exitX=0;exitY=0.5;exitDx=0;exitDy=0;entryX=1;entryY=0.5;entryDx=0;entryDy=0;" parent="1" source="C-jzJU40o5kUoUtQNF1t-208" target="C-jzJU40o5kUoUtQNF1t-216" edge="1">
          <mxGeometry relative="1" as="geometry" />
        </mxCell>
        <mxCell id="C-jzJU40o5kUoUtQNF1t-208" value="DarkRP" style="rhombus;whiteSpace=wrap;html=1;fillColor=#fa6800;fontColor=#000000;strokeColor=#C73500;" parent="1" vertex="1">
          <mxGeometry x="545" y="1650" width="100" height="80" as="geometry" />
        </mxCell>
        <mxCell id="C-jzJU40o5kUoUtQNF1t-210" value="&lt;div&gt;Lambda Gaming:&lt;/div&gt;&lt;div&gt;The Game&lt;/div&gt;" style="rhombus;whiteSpace=wrap;html=1;fillColor=#fa6800;fontColor=#000000;strokeColor=#C73500;" parent="1" vertex="1">
          <mxGeometry x="598.74" y="1570" width="140" height="80" as="geometry" />
        </mxCell>
        <mxCell id="C-jzJU40o5kUoUtQNF1t-212" value="CityRP" style="rhombus;whiteSpace=wrap;html=1;fillColor=#fa6800;fontColor=#000000;strokeColor=#C73500;" parent="1" vertex="1">
          <mxGeometry x="400" y="1600" width="100" height="80" as="geometry" />
        </mxCell>
        <mxCell id="C-jzJU40o5kUoUtQNF1t-216" value="Half-Life Universe RP" style="rhombus;whiteSpace=wrap;html=1;fillColor=#fa6800;fontColor=#000000;strokeColor=#C73500;" parent="1" vertex="1">
          <mxGeometry x="360" y="1700" width="140" height="80" as="geometry" />
        </mxCell>
        <mxCell id="C-jzJU40o5kUoUtQNF1t-218" value="&lt;div&gt;Military Conflict: Vietnam&lt;/div&gt;" style="rhombus;whiteSpace=wrap;html=1;fillColor=#d80073;fontColor=#ffffff;strokeColor=#A50040;" parent="1" vertex="1">
          <mxGeometry x="1157.5000000000002" y="2461" width="122.5" height="82" as="geometry" />
        </mxCell>
        <mxCell id="C-jzJU40o5kUoUtQNF1t-220" value="Day of Infamy" style="rhombus;whiteSpace=wrap;html=1;fillColor=#d80073;fontColor=#ffffff;strokeColor=#A50040;" parent="1" vertex="1">
          <mxGeometry x="1071.5" y="2608" width="122.5" height="82" as="geometry" />
        </mxCell>
        <mxCell id="C-jzJU40o5kUoUtQNF1t-222" value="SteamVR" style="rhombus;whiteSpace=wrap;html=1;fillColor=#008a00;fontColor=#ffffff;strokeColor=#005700;" parent="1" vertex="1">
          <mxGeometry x="756.42" y="2755" width="113" height="80" as="geometry" />
        </mxCell>
        <mxCell id="C-jzJU40o5kUoUtQNF1t-224" value="&lt;div&gt;Jabroni Brawl:&lt;/div&gt;&lt;div&gt;Episode 3&lt;br&gt;&lt;/div&gt;" style="rhombus;whiteSpace=wrap;html=1;fillColor=#d80073;fontColor=#ffffff;strokeColor=#A50040;" parent="1" vertex="1">
          <mxGeometry x="1093.74" y="2370" width="122.5" height="82" as="geometry" />
        </mxCell>
        <mxCell id="C-jzJU40o5kUoUtQNF1t-226" value="Portal: Revolution" style="rhombus;whiteSpace=wrap;html=1;fillColor=#fa6800;fontColor=#000000;strokeColor=#C73500;" parent="1" vertex="1">
          <mxGeometry x="1074.5" y="2060" width="122.5" height="92" as="geometry" />
        </mxCell>
        <mxCell id="C-jzJU40o5kUoUtQNF1t-228" value="Portal Stories: Mel" style="rhombus;whiteSpace=wrap;html=1;fillColor=#fa6800;fontColor=#000000;strokeColor=#C73500;" parent="1" vertex="1">
          <mxGeometry x="1071.5" y="2210" width="128.5" height="90" as="geometry" />
        </mxCell>
        <mxCell id="C-jzJU40o5kUoUtQNF1t-232" value="Portal Reloaded" style="rhombus;whiteSpace=wrap;html=1;fillColor=#fa6800;fontColor=#000000;strokeColor=#C73500;" parent="1" vertex="1">
          <mxGeometry x="839.5" y="2240" width="120" height="80" as="geometry" />
        </mxCell>
        <mxCell id="C-jzJU40o5kUoUtQNF1t-237" value="INFRA" style="rhombus;whiteSpace=wrap;html=1;fillColor=#d80073;fontColor=#ffffff;strokeColor=#A50040;" parent="1" vertex="1">
          <mxGeometry x="706.75" y="2090" width="102.75" height="80" as="geometry" />
        </mxCell>
        <mxCell id="C-jzJU40o5kUoUtQNF1t-239" value="Artifact" style="rhombus;whiteSpace=wrap;html=1;fillColor=#008a00;fontColor=#ffffff;strokeColor=#005700;" parent="1" vertex="1">
          <mxGeometry x="756.42" y="2850" width="113" height="80" as="geometry" />
        </mxCell>
        <mxCell id="C-jzJU40o5kUoUtQNF1t-241" value="DOTA: Underlords" style="rhombus;whiteSpace=wrap;html=1;fillColor=#008a00;fontColor=#ffffff;strokeColor=#005700;" parent="1" vertex="1">
          <mxGeometry x="1175.5800000000002" y="2810" width="113" height="80" as="geometry" />
        </mxCell>
        <mxCell id="C-jzJU40o5kUoUtQNF1t-244" value="&lt;div&gt;Counter-Strike 2&lt;/div&gt;" style="rhombus;whiteSpace=wrap;html=1;fillColor=#008a00;fontColor=#ffffff;strokeColor=#005700;" parent="1" vertex="1">
          <mxGeometry x="851" y="2690" width="113" height="80" as="geometry" />
        </mxCell>
        <mxCell id="C-jzJU40o5kUoUtQNF1t-246" value="&lt;div&gt;Entropy: Zero&lt;/div&gt;&lt;div&gt;1 &amp;amp; 2&lt;br&gt;&lt;/div&gt;" style="rhombus;whiteSpace=wrap;html=1;fillColor=#d80073;fontColor=#ffffff;strokeColor=#A50040;" parent="1" vertex="1">
          <mxGeometry x="784" y="2360" width="120" height="80" as="geometry" />
        </mxCell>
        <mxCell id="C-jzJU40o5kUoUtQNF1t-248" value="Hunt Down The Freeman" style="rhombus;whiteSpace=wrap;html=1;fillColor=#d80073;fontColor=#ffffff;strokeColor=#A50040;" parent="1" vertex="1">
          <mxGeometry x="658.75" y="2490" width="120" height="80" as="geometry" />
        </mxCell>
        <mxCell id="C-jzJU40o5kUoUtQNF1t-250" value="Fistful of Frags" style="rhombus;whiteSpace=wrap;html=1;fillColor=#d80073;fontColor=#ffffff;strokeColor=#A50040;" parent="1" vertex="1">
          <mxGeometry x="1166.08" y="2552" width="122.5" height="82" as="geometry" />
        </mxCell>
        <mxCell id="oVlJzI-M39lpiFUeE6OW-1" value="&lt;b&gt;&lt;font style=&quot;font-size: 18px;&quot;&gt;Abou&lt;/font&gt;&lt;/b&gt;&lt;b style=&quot;background-color: transparent; color: light-dark(rgb(0, 0, 0), rgb(255, 255, 255));&quot;&gt;&lt;font style=&quot;font-size: 18px;&quot;&gt;t&lt;/font&gt;&lt;/b&gt;&lt;div&gt;&lt;span style=&quot;font-size: 18px;&quot;&gt;&lt;b&gt;&lt;br&gt;&lt;/b&gt;&lt;/span&gt;&lt;div&gt;&lt;div&gt;This is kind of like a Source family tree, showing what games used other games as a base, starting with Quake. I also included some non-Source games since I thought their origins were interesting. Feel free to suggest improvements if you think something is wrong or could be added. I don&#39;t plan on adding every single mod or game that could fit here, but if you think one deserves to be added feel free to let me know.&lt;/div&gt;&lt;div&gt;&lt;br&gt;&lt;/div&gt;&lt;div&gt;Note that while many Source 1 games were upgraded to later engine versions after release, they are listed here as they were at release.&lt;/div&gt;&lt;/div&gt;&lt;/div&gt;" style="rounded=1;whiteSpace=wrap;html=1;" vertex="1" parent="1">
          <mxGeometry x="819" y="-240" width="392" height="230" as="geometry" />
        </mxCell>
      </root>
    </mxGraphModel>
  </diagram>
</mxfile>
